<svg xmlns="http://www.w3.org/2000/svg" xmlns:xlink="http://www.w3.org/1999/xlink" width="187.5" viewBox="0 0 187.5 42" height="42" version="1.0"><defs><g id="g"><path d="M 5.078125 0 L 1.46875 0 L 1.46875 -13.578125 L 9.5 -13.578125 L 9.5 -10.640625 L 5.078125 -10.640625 L 5.078125 -8.046875 L 9.15625 -8.046875 L 9.15625 -5.109375 L 5.078125 -5.109375 Z M 5.078125 0"/></g><g id="h"><path d="M 9.796875 0 L 9.140625 -2.546875 L 4.71875 -2.546875 L 4.03125 0 L 0 0 L 4.4375 -13.640625 L 9.328125 -13.640625 L 13.8125 0 Z M 8.375 -5.5625 L 7.78125 -7.78125 C 7.644531 -8.28125 7.476562 -8.921875 7.28125 -9.703125 C 7.09375 -10.492188 6.96875 -11.0625 6.90625 -11.40625 C 6.851562 -11.082031 6.742188 -10.554688 6.578125 -9.828125 C 6.410156 -9.109375 6.046875 -7.6875 5.484375 -5.5625 Z M 8.375 -5.5625"/></g><g id="i"><path d="M 7.390625 0 L 4.609375 -9.78125 L 4.53125 -9.78125 C 4.65625 -8.113281 4.71875 -6.820312 4.71875 -5.90625 L 4.71875 0 L 1.46875 0 L 1.46875 -13.578125 L 6.359375 -13.578125 L 9.1875 -3.9375 L 9.265625 -3.9375 L 12.046875 -13.578125 L 16.9375 -13.578125 L 16.9375 0 L 13.5625 0 L 13.5625 -5.953125 C 13.5625 -6.265625 13.566406 -6.609375 13.578125 -6.984375 C 13.585938 -7.367188 13.628906 -8.296875 13.703125 -9.765625 L 13.625 -9.765625 L 10.875 0 Z M 7.390625 0"/></g><g id="j"><path d="M 1.46875 0 L 1.46875 -13.578125 L 5.15625 -13.578125 L 5.15625 0 Z M 1.46875 0"/></g><g id="k"><path d="M 1.46875 0 L 1.46875 -13.578125 L 5.140625 -13.578125 L 5.140625 -2.96875 L 10.375 -2.96875 L 10.375 0 Z M 1.46875 0"/></g><g id="l"><path d="M 6.3125 -8.546875 L 8.65625 -13.578125 L 12.640625 -13.578125 L 8.171875 -5.3125 L 8.171875 0 L 4.46875 0 L 4.46875 -5.1875 L 0 -13.578125 L 4 -13.578125 Z M 6.3125 -8.546875"/></g><g id="m"><path d="M 5.140625 -4.9375 L 5.140625 0 L 1.46875 0 L 1.46875 -13.578125 L 5.921875 -13.578125 C 9.609375 -13.578125 11.453125 -12.242188 11.453125 -9.578125 C 11.453125 -8.003906 10.6875 -6.785156 9.15625 -5.921875 L 13.109375 0 L 8.953125 0 L 6.0625 -4.9375 Z M 5.140625 -7.703125 L 5.828125 -7.703125 C 7.109375 -7.703125 7.75 -8.269531 7.75 -9.40625 C 7.75 -10.34375 7.117188 -10.8125 5.859375 -10.8125 L 5.140625 -10.8125 Z M 5.140625 -7.703125"/></g><g id="n"><path d="M 9.53125 0 L 1.46875 0 L 1.46875 -13.578125 L 9.53125 -13.578125 L 9.53125 -10.640625 L 5.140625 -10.640625 L 5.140625 -8.5 L 9.203125 -8.5 L 9.203125 -5.5625 L 5.140625 -5.5625 L 5.140625 -3 L 9.53125 -3 Z M 9.53125 0"/></g><g id="o"><path d="M 7.515625 -10.765625 C 6.640625 -10.765625 5.957031 -10.40625 5.46875 -9.6875 C 4.976562 -8.976562 4.734375 -7.992188 4.734375 -6.734375 C 4.734375 -4.117188 5.726562 -2.8125 7.71875 -2.8125 C 8.320312 -2.8125 8.90625 -2.894531 9.46875 -3.0625 C 10.03125 -3.226562 10.597656 -3.429688 11.171875 -3.671875 L 11.171875 -0.5625 C 10.035156 -0.0625 8.753906 0.1875 7.328125 0.1875 C 5.273438 0.1875 3.703125 -0.40625 2.609375 -1.59375 C 1.515625 -2.78125 0.96875 -4.5 0.96875 -6.75 C 0.96875 -8.15625 1.234375 -9.390625 1.765625 -10.453125 C 2.296875 -11.523438 3.054688 -12.347656 4.046875 -12.921875 C 5.035156 -13.492188 6.207031 -13.78125 7.5625 -13.78125 C 9.019531 -13.78125 10.421875 -13.460938 11.765625 -12.828125 L 10.640625 -9.9375 C 10.140625 -10.164062 9.632812 -10.359375 9.125 -10.515625 C 8.625 -10.679688 8.085938 -10.765625 7.515625 -10.765625 Z M 7.515625 -10.765625"/></g><g id="p"><path d="M 11.328125 -9.265625 C 11.328125 -7.742188 10.878906 -6.566406 9.984375 -5.734375 C 9.085938 -4.910156 7.816406 -4.5 6.171875 -4.5 L 5.140625 -4.5 L 5.140625 0 L 1.46875 0 L 1.46875 -13.578125 L 6.171875 -13.578125 C 7.890625 -13.578125 9.175781 -13.203125 10.03125 -12.453125 C 10.894531 -11.710938 11.328125 -10.648438 11.328125 -9.265625 Z M 5.140625 -7.5 L 5.8125 -7.5 C 6.363281 -7.5 6.800781 -7.648438 7.125 -7.953125 C 7.445312 -8.265625 7.609375 -8.695312 7.609375 -9.25 C 7.609375 -10.164062 7.101562 -10.625 6.09375 -10.625 L 5.140625 -10.625 Z M 5.140625 -7.5"/></g><g id="q"><path d="M 10.359375 -4.125 C 10.359375 -3.28125 10.140625 -2.53125 9.703125 -1.875 C 9.273438 -1.226562 8.660156 -0.722656 7.859375 -0.359375 C 7.054688 0.00390625 6.113281 0.1875 5.03125 0.1875 C 4.125 0.1875 3.363281 0.125 2.75 0 C 2.132812 -0.125 1.5 -0.347656 0.84375 -0.671875 L 0.84375 -3.9375 C 1.539062 -3.582031 2.265625 -3.300781 3.015625 -3.09375 C 3.773438 -2.894531 4.472656 -2.796875 5.109375 -2.796875 C 5.648438 -2.796875 6.046875 -2.890625 6.296875 -3.078125 C 6.554688 -3.265625 6.6875 -3.507812 6.6875 -3.8125 C 6.6875 -4 6.632812 -4.160156 6.53125 -4.296875 C 6.425781 -4.429688 6.257812 -4.570312 6.03125 -4.71875 C 5.8125 -4.863281 5.210938 -5.15625 4.234375 -5.59375 C 3.347656 -6 2.679688 -6.390625 2.234375 -6.765625 C 1.796875 -7.140625 1.46875 -7.570312 1.25 -8.0625 C 1.03125 -8.550781 0.921875 -9.128906 0.921875 -9.796875 C 0.921875 -11.054688 1.375 -12.035156 2.28125 -12.734375 C 3.195312 -13.429688 4.453125 -13.78125 6.046875 -13.78125 C 7.453125 -13.78125 8.890625 -13.457031 10.359375 -12.8125 L 9.234375 -9.96875 C 7.960938 -10.550781 6.863281 -10.84375 5.9375 -10.84375 C 5.457031 -10.84375 5.109375 -10.757812 4.890625 -10.59375 C 4.679688 -10.425781 4.578125 -10.21875 4.578125 -9.96875 C 4.578125 -9.707031 4.710938 -9.46875 4.984375 -9.25 C 5.265625 -9.039062 6.015625 -8.660156 7.234375 -8.109375 C 8.398438 -7.578125 9.210938 -7.007812 9.671875 -6.40625 C 10.128906 -5.800781 10.359375 -5.039062 10.359375 -4.125 Z M 10.359375 -4.125"/></g><clipPath id="a"><path d="M 1.9375 1.671875 L 38.660156 1.671875 L 38.660156 38.394531 L 1.9375 38.394531 Z M 1.9375 1.671875"/></clipPath><clipPath id="b"><path d="M 34.082031 1.671875 L 70.808594 1.671875 L 70.808594 38.394531 L 34.082031 38.394531 Z M 34.082031 1.671875"/></clipPath><clipPath id="c"><path d="M 66.230469 1.671875 L 102.957031 1.671875 L 102.957031 38.394531 L 66.230469 38.394531 Z M 66.230469 1.671875"/></clipPath><clipPath id="d"><path d="M 15.011719 6.097656 L 25.292969 6.097656 L 25.292969 41.023438 L 15.011719 41.023438 Z M 15.011719 6.097656"/></clipPath><clipPath id="e"><path d="M 44 6.097656 L 61 6.097656 L 61 41.023438 L 44 41.023438 Z M 44 6.097656"/></clipPath><clipPath id="f"><path d="M 82 6.097656 L 88.617188 6.097656 L 88.617188 41.023438 L 82 41.023438 Z M 82 6.097656"/></clipPath></defs><g clip-path="url(#a)"><path fill="#6262EB" d="M 20.300781 1.671875 C 10.171875 1.671875 1.9375 9.90625 1.9375 20.035156 C 1.9375 30.160156 10.171875 38.394531 20.300781 38.394531 C 30.425781 38.394531 38.660156 30.160156 38.660156 20.035156 C 38.660156 9.90625 30.425781 1.671875 20.300781 1.671875 Z M 20.300781 1.671875"/></g><g clip-path="url(#b)"><path fill="#6262EB" d="M 52.445312 1.671875 C 42.320312 1.671875 34.082031 9.90625 34.082031 20.035156 C 34.082031 30.160156 42.320312 38.394531 52.445312 38.394531 C 62.570312 38.394531 70.808594 30.160156 70.808594 20.035156 C 70.808594 9.90625 62.570312 1.671875 52.445312 1.671875 Z M 52.445312 1.671875"/></g><g clip-path="url(#c)"><path fill="#6262EB" d="M 84.59375 1.671875 C 74.46875 1.671875 66.230469 9.90625 66.230469 20.035156 C 66.230469 30.160156 74.46875 38.394531 84.59375 38.394531 C 94.71875 38.394531 102.957031 30.160156 102.957031 20.035156 C 102.957031 9.90625 94.71875 1.671875 84.59375 1.671875 Z M 84.59375 1.671875"/></g><g clip-path="url(#d)"><path fill="#FFF" d="M 21.597656 33.601562 C 21.636719 33.425781 21.675781 33.269531 21.71875 33.140625 C 22.363281 31.402344 24.621094 29.105469 24.957031 27.273438 C 25.296875 25.445312 23.988281 6.769531 23.988281 6.769531 C 23.988281 6.769531 23.972656 6.113281 23.496094 6.113281 C 23.015625 6.113281 22.980469 7.042969 22.980469 7.042969 C 22.980469 7.042969 23.25 22.953125 23.230469 23.414062 C 23.207031 23.875 23.0625 24.082031 22.582031 24.082031 C 22.101562 24.082031 22.148438 23.339844 22.148438 23.339844 L 21.691406 7.128906 C 21.691406 7.128906 21.714844 6.238281 21.257812 6.261719 C 20.804688 6.289062 20.828125 7.128906 20.828125 7.128906 L 20.925781 23.414062 C 20.925781 23.414062 20.867188 24.121094 20.304688 24.144531 C 19.746094 24.164062 19.742188 23.414062 19.742188 23.414062 L 19.5 7.128906 C 19.5 7.128906 19.523438 6.289062 19.070312 6.261719 C 18.613281 6.238281 18.636719 7.128906 18.636719 7.128906 L 18.3125 23.339844 C 18.3125 23.339844 18.363281 24.082031 17.882812 24.082031 C 17.402344 24.082031 17.285156 23.886719 17.234375 23.414062 C 17.183594 22.941406 17.28125 6.832031 17.28125 6.832031 C 17.28125 6.832031 17.246094 6.113281 16.765625 6.113281 C 16.285156 6.113281 16.273438 6.980469 16.273438 6.980469 C 16.273438 6.980469 15.015625 25.480469 15.503906 27.277344 C 16.386719 30.492188 18.050781 31.367188 18.746094 33.140625 C 18.785156 33.261719 18.824219 33.398438 18.859375 33.542969 C 20.585938 40.605469 16.925781 77.339844 17.160156 79.324219 C 17.761719 84.359375 22.953125 84.671875 23.300781 79.324219 C 23.429688 77.339844 20.195312 40.1875 21.597656 33.601562"/></g><g clip-path="url(#e)"><path fill="#FFF" d="M 54.574219 30.664062 C 56.707031 29.328125 61.089844 27.550781 60.390625 19.769531 C 59.71875 12.257812 56.394531 6.351562 52.679688 6.109375 C 52.726562 6.109375 52.773438 6.105469 52.820312 6.105469 C 52.78125 6.105469 52.742188 6.101562 52.703125 6.105469 C 52.632812 6.101562 52.5625 6.105469 52.496094 6.105469 C 52.421875 6.105469 52.347656 6.101562 52.273438 6.105469 C 52.207031 6.101562 52.144531 6.105469 52.082031 6.105469 C 52.011719 6.105469 51.945312 6.101562 51.878906 6.105469 C 51.820312 6.101562 51.757812 6.105469 51.699219 6.105469 C 51.75 6.105469 51.804688 6.109375 51.855469 6.113281 C 48.34375 6.390625 44.777344 12.28125 44.148438 19.769531 C 43.492188 27.550781 47.703125 29.191406 49.613281 30.664062 C 51.019531 31.753906 50.886719 34.035156 50.886719 34.035156 C 50.886719 34.035156 50.789062 35.917969 50.488281 39.933594 C 50.195312 43.773438 48.53125 63.878906 48.53125 67.527344 C 48.53125 70.953125 48.144531 74.148438 51.304688 74.390625 C 51.269531 74.394531 51.234375 74.398438 51.199219 74.398438 L 51.132812 74.402344 C 51.253906 74.40625 51.382812 74.40625 51.515625 74.398438 C 51.65625 74.40625 51.800781 74.40625 51.957031 74.398438 L 51.972656 74.398438 C 52.050781 74.402344 52.128906 74.402344 52.214844 74.402344 C 52.152344 74.402344 52.097656 74.394531 52.039062 74.394531 C 55.804688 74.148438 55.050781 68.039062 55.050781 68.039062 C 55.050781 68.039062 53.835938 43.96875 53.546875 39.953125 C 53.234375 35.613281 53.195312 34.035156 53.195312 34.035156 C 53.195312 34.035156 53.039062 31.628906 54.574219 30.664062"/></g><g clip-path="url(#f)"><path fill="#FFF" d="M 83.652344 29.953125 L 83.652344 6.84375 C 83.652344 6.511719 83.910156 6.238281 84.226562 6.238281 C 84.992188 6.238281 88.65625 12.914062 88.65625 23.363281 C 88.65625 27.617188 85.417969 28.636719 85.355469 30.886719 C 85.921875 36.074219 88.480469 50.878906 84.597656 51.484375 L 84.585938 51.484375 C 80.578125 51.226562 83.652344 34.007812 83.652344 29.953125"/></g><g fill="#6262EB"><use x="107.679" y="18.083" xmlns:xlink="http://www.w3.org/1999/xlink" xlink:href="#g" xlink:type="simple" xlink:actuate="onLoad" xlink:show="embed"/></g><g fill="#6262EB"><use x="117.93" y="18.083" xmlns:xlink="http://www.w3.org/1999/xlink" xlink:href="#h" xlink:type="simple" xlink:actuate="onLoad" xlink:show="embed"/></g><g fill="#6262EB"><use x="131.737" y="18.083" xmlns:xlink="http://www.w3.org/1999/xlink" xlink:href="#i" xlink:type="simple" xlink:actuate="onLoad" xlink:show="embed"/></g><g fill="#6262EB"><use x="150.122" y="18.083" xmlns:xlink="http://www.w3.org/1999/xlink" xlink:href="#j" xlink:type="simple" xlink:actuate="onLoad" xlink:show="embed"/></g><g fill="#6262EB"><use x="156.743" y="18.083" xmlns:xlink="http://www.w3.org/1999/xlink" xlink:href="#k" xlink:type="simple" xlink:actuate="onLoad" xlink:show="embed"/></g><g fill="#6262EB"><use x="167.811" y="18.083" xmlns:xlink="http://www.w3.org/1999/xlink" xlink:href="#l" xlink:type="simple" xlink:actuate="onLoad" xlink:show="embed"/></g><g fill="#FFFFFF"><use x="107.679" y="36.446" xmlns:xlink="http://www.w3.org/1999/xlink" xlink:href="#m" xlink:type="simple" xlink:actuate="onLoad" xlink:show="embed"/></g><g fill="#FFFFFF"><use x="120.549" y="36.446" xmlns:xlink="http://www.w3.org/1999/xlink" xlink:href="#n" xlink:type="simple" xlink:actuate="onLoad" xlink:show="embed"/></g><g fill="#FFFFFF"><use x="130.985" y="36.446" xmlns:xlink="http://www.w3.org/1999/xlink" xlink:href="#o" xlink:type="simple" xlink:actuate="onLoad" xlink:show="embed"/></g><g fill="#FFFFFF"><use x="143.326" y="36.446" xmlns:xlink="http://www.w3.org/1999/xlink" xlink:href="#j" xlink:type="simple" xlink:actuate="onLoad" xlink:show="embed"/></g><g fill="#FFFFFF"><use x="149.946" y="36.446" xmlns:xlink="http://www.w3.org/1999/xlink" xlink:href="#p" xlink:type="simple" xlink:actuate="onLoad" xlink:show="embed"/></g><g fill="#FFFFFF"><use x="161.961" y="36.446" xmlns:xlink="http://www.w3.org/1999/xlink" xlink:href="#n" xlink:type="simple" xlink:actuate="onLoad" xlink:show="embed"/></g><g fill="#FFFFFF"><use x="172.398" y="36.446" xmlns:xlink="http://www.w3.org/1999/xlink" xlink:href="#q" xlink:type="simple" xlink:actuate="onLoad" xlink:show="embed"/></g></svg>