<svg xmlns="http://www.w3.org/2000/svg" xmlns:xlink="http://www.w3.org/1999/xlink" width="500" zoomAndPan="magnify" viewBox="0 0 375 374.999991" height="500" preserveAspectRatio="xMidYMid meet" version="1.0"><defs><clipPath id="13221a0bc2"><path d="M 1 8.203125 L 374 8.203125 L 374 366.703125 L 1 366.703125 Z M 1 8.203125 " clip-rule="nonzero"/></clipPath><clipPath id="93c917e3ab"><path d="M 172 70 L 253 70 L 253 196 L 172 196 Z M 172 70 " clip-rule="nonzero"/></clipPath><clipPath id="4f18018634"><path d="M 126.21875 103.082031 L 197.589844 63.21875 L 265.617188 185.007812 L 194.246094 224.871094 Z M 126.21875 103.082031 " clip-rule="nonzero"/></clipPath><clipPath id="c39ea6acc3"><path d="M 126.21875 103.082031 L 197.589844 63.21875 L 265.617188 185.007812 L 194.246094 224.871094 Z M 126.21875 103.082031 " clip-rule="nonzero"/></clipPath><clipPath id="cbc99f2c09"><path d="M 129 89 L 212 89 L 212 219 L 129 219 Z M 129 89 " clip-rule="nonzero"/></clipPath><clipPath id="50fb93baaa"><path d="M 126.21875 103.082031 L 197.589844 63.21875 L 265.617188 185.007812 L 194.246094 224.871094 Z M 126.21875 103.082031 " clip-rule="nonzero"/></clipPath><clipPath id="ac7b5b8644"><path d="M 126.21875 103.082031 L 197.589844 63.21875 L 265.617188 185.007812 L 194.246094 224.871094 Z M 126.21875 103.082031 " clip-rule="nonzero"/></clipPath></defs><path fill="#ffffff" d="M 362.453125 275.171875 C 309.402344 298.292969 249.246094 323.375 194.605469 345.210938 C 186.746094 348.308594 179.109375 351.933594 170.949219 354.203125 C 168.832031 354.804688 166.492188 355.261719 164.601562 354.203125 C 163.015625 353.296875 162.105469 351.632812 161.425781 349.972656 C 152.585938 330.175781 153.792969 306.148438 164.523438 287.335938 L 167.699219 286.128906 C 230.652344 262.480469 277.960938 242.835938 346.8125 215.257812 C 333.886719 252.503906 346.734375 258.398438 362.453125 275.171875 Z M 362.453125 275.171875 " fill-opacity="1" fill-rule="nonzero"/><g clip-path="url(#13221a0bc2)"><path fill="#3730a3" d="M 333.433594 266.03125 C 291.492188 284.3125 249.167969 301.539062 206.695312 318.238281 C 206.316406 314.535156 206.015625 310.910156 205.714844 307.433594 C 221.28125 301.3125 236.851562 295.117188 252.417969 288.921875 C 265.191406 283.859375 277.8125 278.496094 290.507812 273.207031 C 302.902344 268.070312 316.355469 263.914062 327.992188 257.265625 C 329.730469 256.285156 328.597656 253.5625 326.632812 254.09375 C 313.558594 257.566406 300.863281 264.214844 288.390625 269.355469 C 275.847656 274.566406 263.226562 279.628906 250.679688 284.917969 C 235.566406 291.339844 220.527344 297.839844 205.410156 304.335938 C 205.109375 300.558594 204.882812 297.082031 204.804688 294.0625 C 221.207031 287.5625 237.453125 280.6875 253.703125 273.964844 C 265.796875 268.976562 277.8125 263.761719 289.828125 258.550781 C 302.449219 253.035156 315.449219 248.125 327.839844 242.003906 C 328.75 241.550781 328.144531 240.039062 327.160156 240.339844 C 314.3125 244.347656 301.691406 249.484375 289.222656 254.546875 C 274.863281 260.4375 262.09375 265.878906 249.320312 271.242188 C 224.457031 281.667969 200.648438 290.207031 176.542969 302.144531 C 175.257812 302.75 176.164062 305.015625 177.523438 304.488281 C 179.566406 303.730469 181.605469 302.976562 183.644531 302.21875 C 183.949219 305.921875 184.25 309.625 184.628906 313.328125 C 181.152344 314.839844 177.675781 316.347656 174.199219 317.859375 C 173.214844 318.238281 173.898438 319.898438 174.878906 319.523438 C 178.203125 318.238281 181.53125 316.878906 184.855469 315.59375 C 185.234375 319.144531 185.609375 322.695312 186.0625 326.324219 C 183.496094 327.304688 180.925781 328.363281 178.355469 329.34375 C 176.691406 329.949219 177.371094 332.59375 179.109375 331.988281 C 181.605469 331.082031 184.023438 330.25 186.515625 329.34375 C 186.59375 329.949219 186.667969 330.554688 186.746094 331.234375 C 187.046875 330.476562 187.425781 329.722656 187.726562 328.890625 C 193.546875 326.777344 199.289062 324.660156 205.035156 322.542969 C 205.789062 323.375 206.542969 324.207031 207.375 325.113281 C 207.300781 323.980469 207.148438 322.847656 207.074219 321.789062 C 250.378906 305.621094 293.152344 287.941406 335.398438 269.128906 C 337.441406 268.296875 335.550781 265.125 333.433594 266.03125 Z M 189.464844 324.960938 C 191.808594 320.128906 194.226562 315.667969 195.433594 313.328125 C 197.25 314.988281 199.363281 316.800781 202.386719 319.898438 C 198.082031 321.636719 193.773438 323.300781 189.464844 324.960938 Z M 368.347656 268.144531 C 365.402344 267.617188 362.53125 268.144531 359.734375 269.050781 C 357.542969 267.691406 355.425781 266.179688 353.460938 264.140625 C 349.378906 259.757812 346.054688 254.320312 344.542969 248.5 C 341.972656 238.753906 343.789062 228.554688 347.640625 219.335938 C 348.246094 219.035156 348.851562 218.808594 349.457031 218.582031 C 355.199219 216.089844 365.78125 212.914062 361.09375 204.753906 C 356.785156 197.273438 351.195312 190.25 346.207031 183.148438 C 325.121094 153.226562 303.734375 123.609375 282.269531 93.992188 C 262.921875 67.398438 244.179688 40.195312 223.398438 14.734375 C 222.113281 13.148438 220.675781 11.335938 219.316406 9.671875 C 218.484375 8.617188 216.671875 8.3125 215.386719 8.617188 C 174.351562 20.628906 133.617188 33.851562 93.484375 48.582031 C 77.613281 54.402344 61.667969 60.371094 46.25 67.320312 C 41.640625 69.359375 37.03125 71.550781 32.648438 74.195312 C 28.792969 76.464844 24.335938 77.066406 20.480469 79.257812 C 15.945312 81.828125 13.226562 86.664062 10.957031 91.195312 C 0.984375 111.371094 0 133.660156 2.191406 155.644531 C 2.265625 156.171875 2.492188 156.625 2.871094 156.855469 C 2.949219 157.003906 2.949219 157.082031 3.023438 157.230469 C 14.738281 180.351562 30.609375 201.355469 45.796875 222.207031 C 71.265625 257.191406 97.414062 291.644531 123.261719 326.398438 C 129.535156 334.859375 135.808594 343.246094 142.382812 351.480469 C 144.648438 354.351562 146.691406 357.449219 149.03125 360.246094 C 150.242188 361.683594 151.449219 363.042969 152.886719 364.25 C 154.097656 365.308594 155.53125 366.515625 157.117188 366.515625 C 159.160156 366.59375 161.125 365.6875 163.015625 365.082031 C 173.367188 361.605469 183.644531 357.601562 193.847656 353.75 C 199.136719 351.707031 204.429688 349.667969 209.71875 347.628906 C 220.222656 343.550781 230.730469 339.394531 241.15625 335.164062 C 251.585938 330.929688 262.015625 326.625 272.445312 322.316406 C 282.875 317.9375 293.230469 313.554688 303.582031 309.097656 C 313.859375 304.636719 324.136719 300.179688 334.417969 295.648438 C 340.234375 293.078125 346.054688 290.507812 351.796875 287.789062 C 354.972656 286.277344 358.070312 284.84375 361.167969 283.257812 C 364.34375 281.59375 368.804688 280.007812 371.449219 277.515625 C 375 273.964844 372.808594 268.976562 368.347656 268.144531 Z M 351.269531 272.753906 C 322.023438 285.824219 292.398438 298.292969 263 310.984375 C 232.316406 324.28125 201.632812 337.503906 170.875 350.726562 C 169.511719 349.894531 169.511719 349.894531 169.511719 349.894531 C 165.582031 346.949219 163.769531 342.792969 162.183594 339.015625 C 159.613281 332.746094 158.253906 325.792969 158.253906 318.992188 C 158.253906 311.289062 160.671875 304.035156 163.542969 296.933594 C 165.808594 291.417969 172.007812 290.054688 177.144531 288.015625 C 197.25 279.933594 217.425781 272 237.53125 263.988281 C 272.824219 250.011719 308.34375 236.414062 343.109375 221.300781 C 339.554688 230.445312 338.800781 240.417969 341.066406 250.238281 C 342.503906 256.511719 345.074219 262.480469 349.003906 267.539062 C 350.058594 268.976562 351.421875 270.488281 352.855469 272 C 352.328125 272.226562 351.796875 272.453125 351.269531 272.753906 Z M 351.269531 272.753906 " fill-opacity="1" fill-rule="nonzero"/></g><path fill="#8c52ff" d="M 334.265625 195.234375 C 335.019531 195.613281 335.777344 195.914062 336.53125 196.21875 C 338.875 197.125 339.933594 193.347656 337.589844 192.441406 C 336.457031 191.988281 335.324219 191.457031 334.265625 190.851562 C 333.660156 187.378906 332.527344 183.828125 330.789062 180.804688 C 329.351562 178.386719 327.238281 175.214844 324.289062 174.535156 C 320.585938 173.703125 319.453125 177.632812 320.359375 180.578125 C 321.417969 183.976562 323.835938 186.925781 326.253906 189.492188 C 327.839844 191.15625 329.65625 192.667969 331.695312 193.800781 C 331.621094 194.328125 331.46875 194.78125 331.242188 195.234375 C 330.941406 195.765625 330.488281 196.066406 329.957031 196.21875 C 327.917969 193.121094 325.5 190.25 322.703125 187.832031 C 320.058594 185.5625 317.1875 183.675781 313.9375 182.316406 C 311.289062 181.257812 307.132812 180.277344 304.714844 182.464844 C 301.84375 185.035156 304.261719 188.8125 306.152344 191.15625 C 308.117188 193.496094 310.6875 195.234375 313.480469 196.445312 C 316.277344 197.652344 319.226562 198.484375 322.25 199.011719 C 323.910156 199.316406 325.800781 199.691406 327.613281 199.691406 C 327.691406 199.917969 327.839844 200.144531 327.917969 200.296875 C 328.523438 201.582031 328.671875 202.5625 327.539062 203.46875 C 327.085938 203.773438 326.707031 204.074219 326.179688 204.378906 C 325.195312 203.546875 324.0625 202.714844 322.929688 201.960938 C 320.433594 200.371094 317.5625 198.636719 314.617188 198.257812 C 312.199219 197.957031 309.777344 199.011719 309.324219 201.582031 C 308.722656 204.832031 311.214844 207.550781 314.011719 208.757812 C 318.09375 210.574219 323.003906 210.195312 327.011719 208.230469 C 327.691406 208.910156 328.371094 209.589844 329.050781 210.269531 C 329.804688 211.027344 331.167969 210.042969 330.488281 209.136719 C 329.957031 208.457031 329.429688 207.777344 328.898438 207.097656 C 329.277344 206.871094 329.65625 206.570312 329.957031 206.339844 C 332.527344 204.226562 332.453125 201.582031 331.394531 199.011719 C 332.980469 198.257812 333.886719 196.820312 334.265625 195.234375 Z M 325.648438 183.296875 C 324.894531 182.390625 324.289062 181.410156 323.761719 180.351562 C 323.382812 179.59375 322.625 178.085938 322.929688 177.175781 C 323.683594 175.214844 327.085938 179.746094 327.539062 180.425781 C 328.976562 182.542969 330.03125 184.882812 330.636719 187.378906 C 330.714844 187.753906 330.863281 188.132812 330.941406 188.585938 C 328.976562 187.074219 327.160156 185.261719 325.648438 183.296875 Z M 318.546875 194.78125 C 314.3125 193.648438 310.082031 191.683594 307.4375 188.058594 C 306.90625 187.300781 305.394531 185.414062 306.453125 184.65625 C 307.359375 183.976562 309.25 184.507812 310.234375 184.734375 C 312.726562 185.414062 314.84375 186.925781 316.957031 188.433594 C 319.980469 190.550781 322.929688 193.121094 325.195312 196.140625 C 322.929688 195.765625 320.738281 195.386719 318.546875 194.78125 Z M 319 206.796875 C 316.582031 206.945312 314.464844 206.265625 312.953125 204.300781 C 312.347656 203.546875 311.367188 201.960938 312.347656 201.128906 C 312.953125 200.601562 314.011719 200.75 314.691406 200.902344 C 317.261719 201.355469 319.90625 202.867188 322.023438 204.300781 C 322.625 204.679688 323.230469 205.132812 323.761719 205.585938 C 322.25 206.191406 320.660156 206.71875 319 206.796875 Z M 183.117188 266.332031 C 183.496094 266.257812 183.796875 266.179688 184.175781 266.105469 C 184.175781 266.859375 184.175781 267.539062 184.25 268.296875 C 184.402344 270.261719 187.347656 270.335938 187.347656 268.296875 C 187.347656 267.085938 187.5 265.953125 187.574219 264.746094 C 189.539062 263.6875 191.355469 262.175781 192.941406 260.589844 C 195.433594 258.019531 197.628906 255.226562 198.835938 251.902344 C 199.820312 249.257812 199.96875 244.949219 196.191406 244.875 C 193.09375 244.800781 190.144531 247.820312 188.558594 250.164062 C 186.214844 253.488281 185.082031 257.792969 184.476562 261.722656 C 184.476562 261.800781 184.476562 261.800781 184.476562 261.875 C 182.511719 262.554688 180.394531 262.855469 178.882812 261.117188 C 178.582031 260.816406 178.355469 260.515625 178.203125 260.136719 C 183.191406 254.46875 185.761719 247.292969 185.914062 239.660156 C 185.988281 236.414062 185.234375 231.578125 181.226562 231.046875 C 177.296875 230.519531 174.578125 234.675781 173.292969 237.847656 C 170.570312 244.648438 170.875 253.335938 173.667969 260.136719 C 172.988281 260.742188 172.308594 261.34375 171.628906 261.722656 C 169.136719 263.160156 166.566406 261.34375 164.753906 259.53125 C 166.71875 255.90625 167.398438 251.597656 167.472656 247.445312 C 167.472656 244.195312 167.171875 240.113281 164.601562 237.773438 C 162.257812 235.65625 158.253906 235.128906 156.210938 237.847656 C 154.324219 240.417969 154.625 244.421875 155.078125 247.367188 C 155.683594 250.996094 157.117188 254.46875 159.160156 257.492188 C 159.839844 258.472656 160.59375 259.457031 161.425781 260.4375 C 160.671875 261.648438 159.765625 262.855469 158.707031 263.914062 C 158.101562 264.519531 158.933594 265.726562 159.6875 265.199219 C 160.972656 264.292969 162.105469 263.234375 163.089844 262.101562 C 164.449219 263.308594 165.886719 264.367188 167.546875 264.972656 C 170.570312 266.105469 173.140625 264.898438 175.332031 263.007812 C 177.070312 265.578125 179.867188 266.785156 183.117188 266.332031 Z M 188.785156 258.398438 C 189.617188 255.527344 190.675781 252.582031 192.789062 250.390625 C 193.394531 249.785156 196.945312 246.761719 197.097656 248.878906 C 197.171875 250.085938 196.191406 251.75 195.585938 252.730469 C 194.90625 253.941406 194 255.148438 193.09375 256.207031 C 191.730469 257.71875 190.144531 259.003906 188.332031 260.0625 C 188.484375 259.53125 188.632812 258.929688 188.785156 258.398438 Z M 176.164062 243.589844 C 176.617188 241.324219 177.222656 238.832031 178.65625 237.015625 C 179.109375 236.488281 180.167969 235.203125 180.773438 235.582031 C 181.605469 236.035156 181.679688 237.921875 181.679688 238.679688 C 182.058594 244.648438 180.621094 250.464844 177.371094 255.453125 C 177.144531 255.828125 176.917969 256.207031 176.617188 256.585938 C 176.390625 255.527344 176.164062 254.46875 176.011719 253.5625 C 175.484375 250.238281 175.558594 246.839844 176.164062 243.589844 Z M 162.710938 257.492188 C 159.460938 253.5625 157.421875 248.578125 157.347656 243.4375 C 157.347656 242.15625 157.269531 240.566406 158.027344 239.433594 C 159.007812 237.921875 160.972656 238.300781 162.183594 239.285156 C 164.375 241.097656 164.148438 244.875 164.222656 247.445312 C 164.375 250.996094 163.921875 254.394531 162.710938 257.492188 Z M 222.492188 23.046875 C 222.1875 22.515625 222.945312 22.0625 223.320312 22.59375 C 233.375 38.007812 244.558594 52.816406 255.367188 67.773438 C 266.023438 82.433594 276.527344 97.164062 287.332031 111.746094 C 298.367188 126.707031 309.550781 141.515625 320.738281 156.398438 C 332.148438 171.511719 344.015625 186.246094 355.199219 201.429688 C 356.03125 202.5625 353.082031 203.546875 352.253906 202.488281 C 340.085938 187.226562 329.578125 171.738281 317.5625 156.324219 C 306.679688 142.269531 293.605469 124.289062 282.800781 110.160156 C 271.765625 95.804688 263.453125 84.472656 253.175781 69.511719 C 242.367188 54.023438 232.164062 39.0625 222.492188 23.046875 Z M 344.46875 213.445312 C 331.394531 219.109375 319.679688 223.417969 306.53125 228.707031 C 298.746094 231.804688 290.960938 234.976562 283.175781 238.148438 C 274.636719 241.625 266.023438 245.101562 257.480469 248.578125 C 248.941406 252.050781 240.328125 255.527344 231.710938 258.929688 C 223.851562 262.027344 216.066406 265.125 208.207031 268.222656 C 201.859375 270.640625 195.511719 273.054688 189.164062 275.324219 C 185.082031 276.757812 181 278.269531 176.84375 279.253906 C 176.542969 279.328125 172.613281 280.308594 173.59375 278.949219 C 172.839844 279.253906 172.460938 277.96875 173.214844 277.664062 C 176.464844 276.382812 179.792969 275.019531 183.042969 273.738281 C 193.695312 269.503906 204.351562 265.273438 215.085938 261.117188 C 226.570312 256.585938 238.058594 252.128906 249.472656 247.59375 C 260.808594 243.136719 272.21875 238.679688 283.554688 234.144531 C 293.910156 230.066406 305.320312 225.984375 315.597656 221.832031 C 321.945312 219.261719 327.539062 217.070312 333.8125 214.425781 C 340.234375 211.707031 346.660156 208.835938 353.007812 205.886719 C 354.972656 204.980469 356.410156 208.382812 354.445312 209.363281 C 351.875 210.722656 347.265625 212.234375 344.46875 213.445312 Z M 362.832031 277.136719 C 355.652344 281.367188 347.71875 284.3125 340.007812 287.636719 C 332.300781 290.964844 324.59375 294.210938 316.882812 297.535156 C 301.917969 303.882812 286.878906 310.230469 271.839844 316.425781 C 240.855469 329.195312 209.71875 341.585938 178.355469 353.371094 C 177.371094 353.75 176.996094 352.238281 177.902344 351.859375 C 208.8125 338.941406 239.796875 326.171875 270.632812 313.101562 C 285.972656 306.601562 301.390625 300.179688 316.730469 293.605469 C 331.542969 287.261719 346.355469 279.402344 361.773438 274.71875 C 363.285156 274.265625 364.117188 276.382812 362.832031 277.136719 Z M 21.613281 90.742188 C 8.3125 109.632812 7.480469 131.996094 8.464844 154.285156 C 8.539062 155.492188 6.726562 155.492188 6.574219 154.285156 C 4.535156 132.296875 5.59375 107.742188 19.574219 89.535156 C 20.480469 88.324219 22.445312 89.457031 21.613281 90.742188 Z M 210.019531 28.109375 C 209.417969 27.730469 208.8125 27.351562 208.207031 27.125 C 207.226562 26.671875 206.167969 26.445312 205.109375 26.371094 C 205.335938 25.613281 205.488281 24.859375 205.714844 24.105469 C 205.941406 23.046875 204.351562 22.59375 204.125 23.652344 C 203.898438 24.558594 203.597656 25.464844 203.371094 26.296875 C 201.785156 26.445312 200.195312 26.898438 198.835938 27.730469 C 194.226562 30.601562 189.390625 34 186.746094 38.914062 C 185.761719 40.726562 183.949219 44.050781 185.6875 45.863281 C 188.105469 48.433594 191.503906 46.46875 193.695312 44.578125 C 198.609375 40.347656 202.386719 35.285156 204.429688 29.089844 C 204.503906 28.863281 204.578125 28.714844 204.578125 28.484375 C 205.789062 28.636719 206.921875 29.089844 207.980469 30.074219 C 207.601562 30.527344 207.300781 30.902344 206.921875 31.355469 C 205.863281 32.71875 204.730469 34.078125 203.824219 35.511719 C 202.011719 38.460938 200.875 41.859375 200.421875 45.257812 C 199.96875 48.507812 200.195312 52.136719 202.917969 54.402344 C 205.261719 56.367188 208.738281 55.535156 210.625 53.34375 C 212.816406 50.851562 213.574219 47.601562 213.800781 44.351562 C 214.027344 40.800781 213.800781 37.097656 213.121094 33.625 C 212.894531 32.566406 212.742188 31.28125 212.210938 30.300781 C 212.441406 30.148438 212.742188 29.996094 213.042969 29.996094 C 214.253906 29.695312 215.234375 30.148438 216.21875 30.980469 C 215.085938 37.175781 214.480469 43.75 216.597656 49.867188 C 217.199219 51.53125 218.410156 54.324219 220.148438 55.460938 C 222.265625 56.820312 224.984375 55.761719 226.34375 53.796875 C 227.175781 52.589844 227.554688 51.078125 227.707031 49.566406 C 227.933594 47.375 227.628906 45.109375 227.027344 42.992188 C 226.722656 41.859375 226.269531 40.800781 225.742188 39.742188 C 224.757812 37.703125 223.550781 35.738281 222.1875 33.925781 C 221.734375 33.246094 220.300781 32.039062 220.148438 31.28125 C 219.996094 30.527344 221.128906 28.863281 221.433594 28.109375 C 221.886719 27.125 221.734375 25.992188 220.753906 25.386719 C 219.921875 24.859375 218.484375 25.085938 218.03125 26.070312 C 217.730469 26.824219 217.425781 27.578125 217.125 28.335938 C 215.234375 27.125 213.121094 26.597656 210.777344 27.804688 C 210.472656 27.804688 210.246094 27.957031 210.019531 28.109375 Z M 197.855469 37.476562 C 196.265625 39.515625 194.453125 41.480469 192.414062 43.144531 C 191.429688 43.976562 190.070312 44.804688 188.859375 44.957031 C 187.574219 45.109375 187.046875 44.203125 187.273438 43.144531 C 188.105469 39.0625 190.976562 36.042969 194.074219 33.472656 C 196.34375 31.582031 199.441406 29.167969 202.539062 28.5625 C 201.40625 31.734375 199.96875 34.757812 197.855469 37.476562 Z M 209.792969 44.351562 C 209.566406 46.46875 209.191406 48.960938 207.980469 50.773438 C 207.527344 51.453125 207.148438 51.832031 206.394531 52.058594 C 205.035156 52.363281 204.203125 51.757812 203.671875 50.472656 C 202.691406 48.128906 203.371094 45.257812 204.050781 42.917969 C 204.730469 40.347656 205.789062 38.15625 207.300781 36.042969 C 208.054688 35.058594 208.738281 34 209.492188 33.019531 C 209.566406 34.078125 209.566406 35.210938 209.644531 36.191406 C 209.945312 38.914062 210.097656 41.632812 209.792969 44.351562 Z M 218.335938 37.855469 C 218.484375 36.871094 218.710938 35.890625 219.015625 34.910156 C 219.695312 36.117188 224.078125 43.21875 224.304688 46.621094 C 224.378906 48.207031 224.605469 51.152344 223.019531 51.757812 C 222.1875 52.058594 221.433594 51.832031 220.828125 51.304688 C 220.527344 50.851562 220.222656 50.398438 219.996094 49.867188 C 219.617188 49.113281 219.316406 48.355469 219.089844 47.601562 C 218.636719 45.5625 218.03125 41.40625 218.335938 37.855469 Z M 47.082031 88.628906 C 47.386719 88.855469 47.6875 89.082031 47.988281 89.230469 C 45.570312 95.125 50.710938 102.605469 55.167969 106.082031 C 59.097656 109.101562 72.929688 114.316406 71.265625 104.191406 C 70.8125 101.246094 68.320312 98.753906 65.75 96.5625 C 68.847656 97.46875 72.097656 98.070312 75.347656 97.996094 C 78.371094 97.996094 83.433594 97.84375 85.625 95.277344 C 90.914062 89.082031 77.085938 85.453125 73.683594 84.625 C 68.621094 83.414062 59.855469 81.902344 53.734375 84.019531 C 53.734375 83.792969 53.734375 83.566406 53.808594 83.339844 C 54.035156 82.054688 54.867188 80.996094 55.925781 80.089844 C 62.425781 82.28125 70.132812 83.035156 76.253906 80.46875 C 81.015625 78.429688 78.824219 72.382812 74.214844 71.703125 C 68.773438 70.949219 59.929688 73.140625 54.941406 77.445312 C 54.035156 77.144531 53.203125 76.839844 52.296875 76.464844 C 51.164062 75.933594 50.105469 77.597656 51.238281 78.199219 C 51.84375 78.503906 52.523438 78.804688 53.203125 79.109375 C 52.675781 79.710938 52.296875 80.390625 51.917969 81.070312 C 51.164062 82.660156 50.863281 84.09375 51.011719 85.378906 C 50.785156 85.53125 50.636719 85.679688 50.484375 85.757812 C 49.878906 85.453125 49.199219 85.152344 48.519531 84.851562 C 46.328125 84.09375 45.421875 87.417969 47.082031 88.628906 Z M 63.027344 76.691406 C 65.824219 75.785156 70.585938 74.121094 73.457031 75.027344 C 78.75 76.691406 74.0625 78.199219 72.023438 78.578125 C 67.640625 79.484375 63.027344 79.410156 58.644531 78.503906 C 60.15625 77.671875 61.746094 77.144531 63.027344 76.691406 Z M 63.027344 86.585938 C 65.75 86.585938 85.097656 88.097656 82.980469 93.539062 C 82.375 95.125 75.347656 94.671875 73.761719 94.519531 C 70.433594 94.292969 67.109375 93.613281 64.011719 92.40625 C 61.59375 91.5 56.984375 89.988281 54.867188 87.269531 C 57.4375 86.511719 60.6875 86.585938 63.027344 86.585938 Z M 51.011719 91.347656 C 55.019531 93.992188 59.023438 96.484375 62.726562 99.734375 C 63.632812 100.566406 65.144531 101.472656 65.75 102.53125 C 67.035156 104.871094 65.371094 106.308594 63.253906 106.082031 C 60.308594 105.777344 56.90625 103.058594 54.941406 100.941406 C 52.902344 98.753906 50.332031 94.671875 51.011719 91.347656 Z M 156.363281 293.605469 C 149.109375 313.402344 148.203125 335.390625 155.835938 355.183594 C 156.0625 355.789062 155.003906 356.242188 154.699219 355.636719 C 145.859375 335.539062 144.574219 313.023438 153.113281 292.699219 C 153.945312 290.8125 157.117188 291.566406 156.363281 293.605469 Z M 165.582031 279.933594 C 166.492188 281.140625 164.449219 282.273438 163.617188 281.066406 C 151.828125 264.972656 139.433594 249.257812 127.644531 233.164062 C 116.007812 217.296875 104.519531 201.429688 93.109375 185.488281 C 70.132812 153.378906 47.839844 120.664062 26.375 87.496094 C 24.941406 85.304688 28.414062 83.339844 29.851562 85.453125 C 52.902344 117.640625 75.648438 149.976562 98.09375 182.542969 C 109.203125 198.636719 120.390625 214.726562 131.574219 230.820312 C 142.988281 247.21875 153.945312 263.839844 165.582031 279.933594 Z M 80.789062 58.933594 C 102.101562 50.851562 123.335938 42.613281 144.953125 35.363281 C 155.910156 31.734375 166.867188 28.109375 177.828125 24.632812 C 188.332031 21.308594 199.214844 16.851562 210.097656 15.265625 C 211.15625 15.113281 212.0625 16.625 210.929688 17.152344 C 200.875 21.988281 189.390625 24.480469 178.734375 27.882812 C 168.078125 31.28125 157.421875 34.832031 146.765625 38.382812 C 124.925781 45.710938 102.933594 52.664062 81.167969 60.371094 C 80.261719 60.746094 79.882812 59.3125 80.789062 58.933594 Z M 80.789062 58.933594 " fill-opacity="1" fill-rule="nonzero"/><g clip-path="url(#93c917e3ab)"><g clip-path="url(#4f18018634)"><g clip-path="url(#c39ea6acc3)"><path fill="#ffffff" d="M 207.917969 89.878906 C 209.773438 94.425781 210.777344 99.242188 210.976562 104.082031 C 211.042969 105.699219 211.019531 107.320312 210.910156 108.9375 C 210.730469 111.503906 210.40625 114.222656 209.808594 116.175781 C 209.789062 116.242188 209.777344 116.324219 209.769531 116.414062 C 209.4375 115.617188 209.296875 115.015625 209.371094 114.648438 C 209.789062 112.65625 209.871094 109.917969 209.816406 107.351562 C 209.785156 105.730469 209.660156 104.113281 209.453125 102.511719 C 208.824219 97.710938 207.394531 93.007812 205.148438 88.632812 C 203.148438 84.734375 200.890625 81.847656 198.554688 79.730469 C 194.5 76.550781 189.925781 74.867188 185.757812 75.007812 C 190.976562 73.628906 197.125 75.757812 202.125 80.433594 C 204.269531 82.75 206.265625 85.816406 207.917969 89.878906 Z M 204.320312 77.757812 C 197.101562 71.011719 187.929688 68.609375 180.988281 72.488281 C 174.046875 76.363281 171.285156 85.433594 173.246094 95.113281 C 174.277344 98.824219 176.191406 102.867188 179.355469 107.183594 C 182.898438 112.023438 187.257812 116.152344 192.160156 119.457031 C 193.804688 120.5625 195.5 121.578125 197.253906 122.496094 C 200.035156 123.953125 203.074219 125.355469 205.484375 125.988281 C 208.066406 126.664062 215.128906 139.75 222.476562 154.53125 L 222.480469 154.539062 C 226.015625 161.644531 229.613281 169.140625 232.816406 175.84375 C 236.4375 183.425781 239.542969 189.988281 241.460938 193.808594 C 242.464844 195.796875 247.167969 195.300781 249.015625 194.273438 C 250.808594 193.269531 253.71875 189.628906 252.671875 187.753906 C 252.640625 187.703125 252.613281 187.648438 252.578125 187.601562 C 250.460938 184.167969 246.816406 178.550781 242.582031 172 L 242.570312 171.980469 L 241.777344 170.636719 C 241.761719 170.601562 241.742188 170.558594 241.722656 170.523438 L 241.652344 170.398438 C 241.535156 170.207031 241.414062 170.003906 241.28125 169.800781 L 214.011719 123.648438 L 214.011719 123.644531 C 213.683594 122.613281 213.566406 121.847656 213.699219 121.398438 C 214.429688 119.011719 214.828125 115.691406 215.042969 112.558594 C 215.179688 110.589844 215.210938 108.609375 215.125 106.632812 C 214.886719 100.722656 213.65625 94.84375 211.394531 89.289062 C 209.375 84.332031 206.9375 80.582031 204.320312 77.757812 " fill-opacity="1" fill-rule="nonzero"/></g></g></g><g clip-path="url(#cbc99f2c09)"><g clip-path="url(#50fb93baaa)"><g clip-path="url(#ac7b5b8644)"><path fill="#ffffff" d="M 175.476562 152.773438 C 175.332031 152.507812 175.1875 152.238281 175.046875 151.976562 C 173.476562 149.035156 172.671875 145.273438 173.410156 141.972656 C 174.832031 135.628906 177.367188 130.910156 173.453125 124.699219 L 151.84375 90.449219 C 151.40625 89.75 150.496094 89.519531 149.777344 89.921875 C 149.03125 90.339844 148.765625 91.28125 149.183594 92.03125 L 170.328125 129.890625 C 170.890625 130.898438 170.460938 132.191406 169.359375 132.632812 C 168.449219 133 167.40625 132.574219 166.925781 131.71875 L 146.058594 94.351562 C 145.503906 93.363281 144.253906 93.007812 143.265625 93.558594 C 142.277344 94.109375 141.925781 95.359375 142.476562 96.351562 L 163.378906 133.773438 C 163.902344 134.707031 163.570312 135.886719 162.640625 136.402344 C 161.710938 136.925781 160.53125 136.589844 160.007812 135.65625 L 139.109375 98.234375 C 138.554688 97.242188 137.304688 96.886719 136.316406 97.4375 C 135.328125 97.992188 134.976562 99.242188 135.53125 100.234375 L 156.398438 137.597656 C 156.878906 138.457031 156.695312 139.566406 155.902344 140.148438 C 154.949219 140.855469 153.621094 140.542969 153.058594 139.535156 L 131.914062 101.675781 C 131.496094 100.929688 130.550781 100.660156 129.804688 101.078125 C 129.085938 101.480469 128.804688 102.375 129.171875 103.113281 L 147.003906 139.472656 C 150.238281 146.0625 155.585938 146.378906 161.730469 148.496094 C 164.929688 149.597656 167.710938 152.253906 169.394531 155.136719 C 169.542969 155.394531 169.695312 155.65625 169.847656 155.921875 C 169.914062 156.042969 169.980469 156.15625 170.046875 156.269531 C 179.554688 172.859375 194.652344 205.707031 200.191406 216.691406 C 200.222656 216.75 200.253906 216.804688 200.28125 216.855469 C 201.367188 218.796875 206.019531 218.28125 207.816406 217.285156 C 209.609375 216.277344 212.484375 212.585938 211.402344 210.648438 C 211.371094 210.59375 211.339844 210.539062 211.304688 210.484375 C 204.863281 200.003906 184.808594 169.925781 175.667969 153.128906 C 175.609375 153.015625 175.542969 152.894531 175.476562 152.773438 " fill-opacity="1" fill-rule="nonzero"/></g></g></g></svg>